{"title":"The Wolverine (2013) EXTENDED BRRip 1080p {DD5.1 CH} [Multi-Audi","uid":9223315,"size":3984210569,"categoryP":"video","categoryS":"hd___movies","magnet":"?xt=urn:btih:6fdf2049c703d8f234e5f91e7fcbe8b771b5b9c8&amp;dn=The+Wolverine+%282013%29+EXTENDED+BRRip+1080p+%7BDD5.1+CH%7D+%5BMulti-Audi&amp;tr=udp%3A%2F%2Ftracker.openbittorrent.com%3A80&amp;tr=udp%3A%2F%2Fopen.demonii.com%3A1337&amp;tr=udp%3A%2F%2Ftracker.coppersurfer.tk%3A6969&amp;tr=udp%3A%2F%2Fexodus.desync.com%3A6969","seeders":1,"leechers":0,"uploader":"SaNRiM","files":-1,"time":1384971168,"description":"Storyline\n\nIn modern day Japan, Wolverine is out of his depth in an unknown world as he faces his ultimate nemesis in a life-or-death battle that will leave him forever changed. Vulnerable for the first time and pushed to his physical and emotional limits, he confronts not only lethal samurai steel but also his inner struggle against his own immortality, emerging more powerful than we have ever seen him before.\n\n\n\nTorrent Info\n\nGeneral\n\nUnique ID : 235681021211223654737527952769721881497 (0xB14E837BC70F1756AED77FA68C18D399)\nComplete name : The Wolverine (2013) EXTENDED BRRip 1080p {DD5.1 CH} [Multi-Audio] [English-Hindi-Tamil-Telgu] [Multi Sub].mkv\nFormat : Matroska\nFormat version : Version 4 / Version 2\nFile size : 3.70 GiB\nDuration : 2h 18mn\nOverall bit rate : 3 830 Kbps\nEncoded date : UTC 2013-11-20 16:04:29\nWriting application : mkvmerge v6.5.0 ('Isn't she lovely') built on Oct 20 2013 12:50:05\nWriting library : libebml v1.3.0 + libmatroska v1.4.1\n\n\nVideo\n\nID : 1\nFormat : AVC\nFormat/Info : Advanced Video Codec\nFormat profile : &lt;a class=&quot;__cf_email__&quot; href=&quot;/cdn-cgi/l/email-protection&quot; data-cfemail=&quot;1058797778505c243e21&quot;&gt;[email&amp;#160;protected]&lt;/a&gt;&lt;script cf-hash='f9e31' type=&quot;text/javascript&quot;&gt;\n/* &lt;![CDATA[ */!function(){try{var t=&quot;currentScript&quot;in document?document.currentScript:function(){for(var t=document.getElementsByTagName(&quot;script&quot;),e=t.length;e--;)if(t[e].getAttribute(&quot;cf-hash&quot;))return t[e]}();if(t&amp;&amp;t.previousSibling){var e,r,n,i,c=t.previousSibling,a=c.getAttribute(&quot;data-cfemail&quot;);if(a){for(e=&quot;&quot;,r=parseInt(a.substr(0,2),16),n=2;a.length-n;n+=2)i=parseInt(a.substr(n,2),16)^r,e+=String.fromCharCode(i);e=document.createTextNode(e),c.parentNode.replaceChild(e,c)}}}catch(u){}}();/* ]]&gt; */&lt;/script&gt;\nFormat settings, CABAC : Yes\nFormat settings, ReFrames : 4 frames\nCodec ID : V_MPEG4/ISO/AVC\nDuration : 2h 18mn\nBit rate : 2 016 Kbps\nWidth : 1 920 pixels\nHeight : 798 pixels\nDisplay aspect ratio : 2.40:1\nFrame rate mode : Constant\nFrame rate : 23.976 fps\nColor space : YUV\nChroma subsampling : 4:2:0\nBit depth : 8 bits\nScan type : Progressive\nBits/(Pixel*Frame) : 0.055\nStream size : 1.89 GiB (51%)\nTitle : ~SaNRiM~\nWriting library : x264 core 132 r2 76a5c3a\nLanguage : English\nDefault : Yes\nForced : No\nColor primaries : BT.709\nMatrix coefficients : BT.709\n\n\nAudio #1\n\nID : 2\nFormat : AC-3\nFormat/Info : Audio Coding 3\nMode extension : CM (complete main)\nFormat settings, Endianness : Big\nCodec ID : A_AC3\nDuration : 2h 18mn\nBit rate mode : Constant\nBit rate : 448 Kbps\nChannel(s) : 6 channels\nChannel positions : Front: L C R, Side: L R, LFE\nSampling rate : 48.0 KHz\nBit depth : 16 bits\nCompression mode : Lossy\nStream size : 443 MiB (12%)\nTitle : ~SaNRiM~\nLanguage : Hindi\n\n\n\nAudio #2\n\nID : 3\nFormat : AC-3\nFormat/Info : Audio Coding 3\nMode extension : CM (complete main)\nFormat settings, Endianness : Big\nCodec ID : A_AC3\nDuration : 2h 18mn\nBit rate mode : Constant\nBit rate : 448 Kbps\nChannel(s) : 6 channels\nChannel positions : Front: L C R, Side: L R, LFE\nSampling rate : 48.0 KHz\nBit depth : 16 bits\nCompression mode : Lossy\nStream size : 443 MiB (12%)\nTitle : ~SaNRiM~\nLanguage : Tamil\n\n\n\nAudio #3\n\nID : 4\nFormat : AC-3\nFormat/Info : Audio Coding 3\nMode extension : CM (complete main)\nFormat settings, Endianness : Big\nCodec ID : A_AC3\nDuration : 2h 18mn\nBit rate mode : Constant\nBit rate : 448 Kbps\nChannel(s) : 6 channels\nChannel positions : Front: L C R, Side: L R, LFE\nSampling rate : 48.0 KHz\nBit depth : 16 bits\nCompression mode : Lossy\nStream size : 443 MiB (12%)\nTitle : ~SaNRiM~\nLanguage : Telugu\n\n\nAudio #4\n\nID : 5\nFormat : AC-3\nFormat/Info : Audio Coding 3\nMode extension : CM (complete main)\nFormat settings, Endianness : Big\nCodec ID : A_AC3\nDuration : 2h 18mn\nBit rate mode : Constant\nBit rate : 448 Kbps\nChannel(s) : 6 channels\nChannel positions : Front: L C R, Side: L R, LFE\nSampling rate : 48.0 KHz\nBit depth : 16 bits\nCompression mode : Lossy\nStream size : 443 MiB (12%)\nTitle : ~SaNRiM~\nLanguage : English\n\n\nScreens &lt;a href=&quot;\nhttp://cdn.piczend.com/images/ufavCTCl/1384953975_vlcsnap-2013-11-20-17h05m35s58.png&quot; rel=&quot;nofollow&quot; target=&quot;_NEW&quot;&gt;\nhttp://cdn.piczend.com/images/ufavCTCl/1384953975_vlcsnap-2013-11-20-17h05m35s58.png&lt;/a&gt; &lt;a href=&quot;\nhttp://cdn.piczend.com/images/nG02N8zT/1384953977_vlcsnap-2013-11-20-17h05m51s217.png&quot; rel=&quot;nofollow&quot; target=&quot;_NEW&quot;&gt;\nhttp://cdn.piczend.com/images/nG02N8zT/1384953977_vlcsnap-2013-11-20-17h05m51s217.png&lt;/a&gt; &lt;a href=&quot;\nhttp://cdn.piczend.com/images/CfNdPtwa/1384953978_vlcsnap-2013-11-20-17h06m02s70.png&quot; rel=&quot;nofollow&quot; target=&quot;_NEW&quot;&gt;\nhttp://cdn.piczend.com/images/CfNdPtwa/1384953978_vlcsnap-2013-11-20-17h06m02s70.png&lt;/a&gt; &lt;a href=&quot;\nhttp://cdn.piczend.com/images/7W3cKDsI/1384953975_vlcsnap-2013-11-20-17h06m30s99.png&quot; rel=&quot;nofollow&quot; target=&quot;_NEW&quot;&gt;\nhttp://cdn.piczend.com/images/7W3cKDsI/1384953975_vlcsnap-2013-11-20-17h06m30s99.png&lt;/a&gt; &lt;a href=&quot;\nhttp://cdn.piczend.com/images/KomDHFJq/1384953985_vlcsnap-2013-11-20-17h06m55s97.png&quot; rel=&quot;nofollow&quot; target=&quot;_NEW&quot;&gt;\nhttp://cdn.piczend.com/images/KomDHFJq/1384953985_vlcsnap-2013-11-20-17h06m55s97.png&lt;/a&gt; &lt;a href=&quot;\nhttp://cdn.piczend.com/images/VfNgEjl0/1384954005_vlcsnap-2013-11-20-17h07m13s13.png&quot; rel=&quot;nofollow&quot; target=&quot;_NEW&quot;&gt;\nhttp://cdn.piczend.com/images/VfNgEjl0/1384954005_vlcsnap-2013-11-20-17h07m13s13.png&lt;/a&gt; &lt;a href=&quot;\nhttp://cdn.piczend.com/images/8unBsORK/1384954007_vlcsnap-2013-11-20-17h07m51s142.png&quot; rel=&quot;nofollow&quot; target=&quot;_NEW&quot;&gt;\nhttp://cdn.piczend.com/images/8unBsORK/1384954007_vlcsnap-2013-11-20-17h07m51s142.png&lt;/a&gt; &lt;a href=&quot;\nhttp://cdn.piczend.com/images/1EDUh0JU/1384954064_vlcsnap-2013-11-20-17h08m13s103.png&quot; rel=&quot;nofollow&quot; target=&quot;_NEW&quot;&gt;\nhttp://cdn.piczend.com/images/1EDUh0JU/1384954064_vlcsnap-2013-11-20-17h08m13s103.png&lt;/a&gt; &lt;a href=&quot;\nhttp://cdn.piczend.com/images/jsvvkWDm/1384954096_vlcsnap-2013-11-20-17h08m33s46.png&quot; rel=&quot;nofollow&quot; target=&quot;_NEW&quot;&gt;\nhttp://cdn.piczend.com/images/jsvvkWDm/1384954096_vlcsnap-2013-11-20-17h08m33s46.png&lt;/a&gt; &lt;a href=&quot;\nhttp://cdn.piczend.com/images/jplH2H00/1384954082_vlcsnap-2013-11-20-17h10m04s192.png&quot; rel=&quot;nofollow&quot; target=&quot;_NEW&quot;&gt;\nhttp://cdn.piczend.com/images/jplH2H00/1384954082_vlcsnap-2013-11-20-17h10m04s192.png&lt;/a&gt; &lt;a href=&quot;\nhttp://cdn.piczend.com/images/zI49bnIa/1384954189_vlcsnap-2013-11-20-17h10m11s6.png&quot; rel=&quot;nofollow&quot; target=&quot;_NEW&quot;&gt;\nhttp://cdn.piczend.com/images/zI49bnIa/1384954189_vlcsnap-2013-11-20-17h10m11s6.png&lt;/a&gt; &lt;a href=&quot;\nhttp://cdn.piczend.com/images/zU133cUV/1384954133_vlcsnap-2013-11-20-17h10m34s232.png&quot; rel=&quot;nofollow&quot; target=&quot;_NEW&quot;&gt;\nhttp://cdn.piczend.com/images/zU133cUV/1384954133_vlcsnap-2013-11-20-17h10m34s232.png&lt;/a&gt; &lt;a href=&quot;\nhttp://cdn.piczend.com/images/jyZ9mIPt/1384954090_vlcsnap-2013-11-20-17h10m59s232.png&quot; rel=&quot;nofollow&quot; target=&quot;_NEW&quot;&gt;\nhttp://cdn.piczend.com/images/jyZ9mIPt/1384954090_vlcsnap-2013-11-20-17h10m59s232.png&lt;/a&gt;\n\n\n                      If you like my work please comment\n                          Any request? Just PM me\n                       Please seed long after download\n                         Thank you &amp; enjoy the best\n                                 ~SaNRiM~","torrent":{"xt":"urn:btih:6fdf2049c703d8f234e5f91e7fcbe8b771b5b9c8","amp;dn":"The+Wolverine+%282013%29+EXTENDED+BRRip+1080p+%7BDD5.1+CH%7D+%5BMulti-Audi","amp;tr":["udp%3A%2F%2Ftracker.openbittorrent.com%3A80","udp%3A%2F%2Fopen.demonii.com%3A1337","udp%3A%2F%2Ftracker.coppersurfer.tk%3A6969","udp%3A%2F%2Fexodus.desync.com%3A6969"],"infoHash":"6fdf2049c703d8f234e5f91e7fcbe8b771b5b9c8","infoHashBuffer":{"type":"Buffer","data":[111,223,32,73,199,3,216,242,52,229,249,30,127,203,232,183,113,181,185,200]},"announce":[],"urlList":[]}}